<svg width="87" height="87" viewBox="0 0 87 87" fill="none" xmlns="http://www.w3.org/2000/svg">
<path d="M9.88685 55.4875C10.2896 55.4201 10.6649 55.4143 11.0128 55.4689C11.3548 55.487 11.5265 55.4953 11.5265 55.4953C11.8134 55.4098 12.259 55.4863 12.8634 55.7238C13.5047 55.9553 14.1431 56.2815 14.7785 56.7023C15.4504 57.117 15.9396 57.5623 16.2452 58.0383C16.9785 58.8192 17.3765 59.8445 17.4386 61.1144C17.5007 62.3845 17.1869 63.7736 16.4982 65.2824C16.3519 65.5329 16.0257 66.0584 15.5197 66.8586C15.0135 67.6589 14.4312 68.5671 13.7726 69.5812C13.1446 70.5525 12.5558 71.4228 12.007 72.1926C11.4947 72.9563 11.1624 73.4455 11.0099 73.6594C10.7719 73.8123 10.3907 74.2338 9.86634 74.924C9.3785 75.6082 8.84771 76.3748 8.27455 77.2238C7.73176 78.0303 7.26809 78.7489 6.88392 79.3781C6.5307 79.9639 6.39032 80.251 6.46302 80.2394C6.45113 80.3918 6.63468 80.3615 7.01283 80.1476C7.42173 79.8908 7.78162 79.679 8.09291 79.5139C8.61169 79.2387 9.22567 78.9667 9.93373 78.6975C10.6721 78.3855 11.4165 78.11 12.1671 77.8713C12.9178 77.6326 13.5653 77.4492 14.1085 77.3205C14.6882 77.1858 15.0425 77.1638 15.171 77.2551C15.275 77.426 15.3427 77.4902 15.3732 77.4475C15.4302 77.3675 15.4603 77.3247 15.464 77.3195C15.4943 77.0509 15.9403 76.9006 16.8009 76.8693C17.6985 76.8319 18.5144 76.8648 19.2472 76.968C19.6685 77.0104 20.0046 77.1048 20.255 77.2512C20.5418 77.3912 20.6971 77.5345 20.7218 77.6809C20.7218 77.6809 20.7741 77.7668 20.8781 77.9377C21.0125 78.0658 21.2111 78.2396 21.4738 78.4592C22.1396 78.8372 22.2256 79.3496 21.7316 79.9973C21.2742 80.6388 20.2915 80.9545 18.7833 80.9435C17.8311 81.1031 17.0527 81.2899 16.4484 81.5041C16.3141 81.6019 16.0086 81.6909 15.5324 81.7707C15.0562 81.8505 14.6015 81.9456 14.1681 82.0559C13.4964 82.093 12.843 82.2403 12.2081 82.4973C11.5672 82.7176 10.8131 83.0508 9.94642 83.4973C9.63513 83.6624 9.14945 83.9129 8.49037 84.2492C7.83133 84.5855 7.11765 84.9316 6.34877 85.2863C5.57979 85.6411 4.87442 85.9283 4.23353 86.1486C3.62947 86.3627 3.2325 86.467 3.0431 86.4611C2.8843 86.4124 2.59356 86.2539 2.17201 85.9855C1.78726 85.7112 1.39617 85.4005 0.999156 85.0529C0.595861 84.6686 0.320689 84.3754 0.173961 84.174C0.033379 84.0093 -0.0221734 83.6794 0.00794493 83.1848C0.0746954 82.684 0.181728 82.4212 0.328257 82.3967C0.45041 82.4515 0.575347 82.2989 0.703257 81.9387C0.831151 81.5784 0.956498 81.1998 1.07826 80.8029C1.19384 80.3696 1.24571 80.1156 1.23353 80.0422C1.24561 79.8896 1.3181 79.764 1.45228 79.6662C1.61695 79.5257 1.76366 79.3885 1.89173 79.2541C2.0258 78.9303 2.21515 78.5972 2.45912 78.2551C2.73352 77.8702 2.94364 77.5524 3.08998 77.3019C3.32164 76.8866 3.76095 76.2483 4.40736 75.3869C5.0539 74.5254 5.67956 73.6481 6.28334 72.756C6.91127 71.7849 7.46572 70.9387 7.9474 70.218C8.42291 69.4606 8.65768 68.9503 8.6515 68.6877C8.6515 68.6877 8.69778 68.6235 8.78919 68.4953C8.91113 68.3243 9.05421 68.1681 9.21888 68.0275C9.38363 67.8869 9.59183 67.6641 9.84193 67.3586C10.1286 67.047 10.3631 66.7626 10.546 66.506C10.5702 66.2007 10.6801 65.8431 10.8751 65.4338C11.1007 64.9818 11.3661 64.542 11.671 64.1144C11.8904 63.6259 12.0855 63.1037 12.256 62.548C12.4204 61.9556 12.5177 61.5247 12.548 61.256C12.5904 60.8347 12.513 60.6023 12.3175 60.5598C12.1156 60.4806 11.5905 60.3803 10.7423 60.259C9.81423 60.1132 8.98081 60.1961 8.24232 60.508C7.50372 60.82 6.56927 61.5415 5.44056 62.6721C4.94623 62.8678 4.49489 63.095 4.08607 63.3517C3.71403 63.6022 3.37829 63.7337 3.07923 63.7463C2.92043 63.6976 2.72723 63.5599 2.50111 63.3342C2.27506 63.1085 2.034 62.9038 1.77748 62.7209L0.832164 60.4504L2.37904 59.2307C3.72125 58.0268 5.03032 57.0735 6.3058 56.3703C7.61191 55.6242 8.80591 55.3296 9.88685 55.4875ZM34.7228 50.9318C35.4554 50.8091 36.2894 50.8383 37.2238 51.0207C38.1886 51.1603 39.0376 51.3947 39.7706 51.7238C40.4973 52.0162 40.8917 52.3459 40.9533 52.7121C40.9962 52.9685 41.0202 53.2288 41.0265 53.4914C41.0326 53.7536 40.8771 53.8358 40.5597 53.7385L40.0109 53.8303L40.8361 55.3869C41.0317 55.6554 41.2272 56.0371 41.423 56.5314C41.6126 56.9892 41.7412 57.4196 41.8087 57.8225C41.8701 58.1888 41.9072 58.7482 41.9201 59.4992C41.9634 60.2072 41.9613 60.9794 41.9132 61.8156C41.9017 62.646 41.8626 63.4249 41.796 64.1516C41.7661 64.872 41.7057 65.4096 41.6144 65.7639C41.5413 66.002 41.5048 66.2342 41.505 66.4601C41.5357 66.6432 41.5635 66.8079 41.588 66.9543C41.4906 67.2718 41.3379 67.8248 41.131 68.6125C40.924 69.4004 40.7724 69.9541 40.6749 70.2717C40.5531 70.4425 40.446 70.5917 40.3546 70.7199C40.2998 70.842 40.3576 70.9642 40.5285 71.0861C40.5469 71.196 40.4985 71.4681 40.3829 71.9016C40.2612 72.2986 40.1178 72.6806 39.9533 73.0471C39.8254 73.4071 39.7066 73.5967 39.5968 73.6154C39.5968 73.6154 39.5443 73.6424 39.4406 73.6975C39.3675 73.7098 39.3402 73.7713 39.3585 73.881C39.3831 74.0276 39.1909 74.4556 38.7824 75.1642C38.4105 75.8666 37.9503 76.6026 37.4015 77.3723C37.0965 77.7999 36.5897 78.3748 35.882 79.0959C35.1682 79.7803 34.4452 80.41 33.713 80.9846C33.0114 81.5163 32.4587 81.8155 32.0558 81.883C31.7993 81.9259 31.3077 81.9144 30.5812 81.8478C29.8912 81.7751 29.1585 81.6719 28.3829 81.5383C27.6379 81.3618 27.0364 81.1422 26.5783 80.8801C25.1548 80.0264 24.0603 79.0047 23.296 77.8146C22.5257 76.588 21.9718 75.3059 21.6349 73.9689C21.3346 72.6259 21.1748 71.3344 21.1554 70.0949C21.1656 67.683 21.6193 65.2161 22.5148 62.6935C23.4041 60.1344 24.6173 57.9351 26.1544 56.0959C26.9657 55.0938 27.7982 54.2195 28.6525 53.4738C29.5067 52.7282 30.4618 52.135 31.5177 51.6945C31.9022 51.5171 32.461 51.3671 33.1935 51.2443C33.9563 51.0789 34.4663 50.9748 34.7228 50.9318ZM53.424 48.1945C53.8269 48.127 54.2028 48.1203 54.5509 48.175C54.8838 48.1925 55.0548 48.2009 55.0636 48.2014C55.3505 48.1156 55.7968 48.1922 56.4015 48.4299C57.0428 48.6614 57.6812 48.9876 58.3165 49.4084C58.9885 49.823 59.4776 50.2683 59.7833 50.7443C60.5166 51.5252 60.9145 52.5507 60.9767 53.8205C61.0388 55.0905 60.725 56.4806 60.0363 57.9894C59.8898 58.2401 59.5636 58.7657 59.0577 59.5656C58.5516 60.3659 57.9692 61.2732 57.3107 62.2873C56.6826 63.2586 56.0939 64.1289 55.5451 64.8986C55.0328 65.6623 54.7005 66.1516 54.548 66.3654C54.31 66.5183 53.9289 66.9398 53.4044 67.6301C52.9165 68.3144 52.3859 69.0816 51.8126 69.9309C51.2699 70.7373 50.8062 71.4549 50.422 72.0842C50.0684 72.6706 49.9279 72.9577 50.0011 72.9455C49.989 73.0982 50.1725 73.0677 50.5509 72.8537C50.9597 72.5969 51.3198 72.386 51.631 72.2209C52.1497 71.9457 52.7628 71.6727 53.4708 71.4035C54.2094 71.0915 54.9544 70.8161 55.7052 70.5773C56.456 70.3386 57.1033 70.1552 57.6466 70.0266C58.2262 69.8918 58.5806 69.8698 58.7091 69.9611C58.8131 70.132 58.8808 70.1963 58.9113 70.1535C58.9692 70.0722 58.9993 70.0295 59.0021 70.0256C59.0324 69.7569 59.4782 69.6067 60.339 69.5754C61.2366 69.538 62.0525 69.5708 62.7853 69.674C63.2065 69.7164 63.5427 69.8109 63.7931 69.9572C64.0797 70.0972 64.2351 70.2406 64.2599 70.3869C64.2599 70.3869 64.3122 70.4729 64.4161 70.6437C64.5506 70.7718 64.7492 70.9457 65.0119 71.1652C65.6777 71.5433 65.7637 72.0566 65.2697 72.7043C64.8122 73.3456 63.8293 73.6605 62.3214 73.6496C61.369 73.8092 60.5898 73.9959 59.9855 74.2101C59.8511 74.3079 59.5463 74.397 59.0704 74.4767C58.5944 74.5565 58.1395 74.6517 57.7062 74.7619C57.0346 74.7991 56.381 74.9464 55.7462 75.2033C55.1053 75.4237 54.3512 75.7569 53.4845 76.2033C53.1732 76.3684 52.6876 76.6189 52.0285 76.9553C51.3693 77.2916 50.6549 77.6376 49.8859 77.9924C49.117 78.3471 48.4124 78.6353 47.7716 78.8557C47.1677 79.0697 46.7707 79.173 46.5812 79.1672C46.4224 79.1185 46.1316 78.9599 45.7101 78.6916C45.3253 78.4172 44.9343 78.1065 44.5372 77.759C44.1339 77.3746 43.8588 77.0815 43.712 76.8801C43.5715 76.7153 43.5159 76.3854 43.546 75.8908C43.6128 75.3902 43.7198 75.1273 43.8663 75.1027C43.9885 75.1576 44.1134 75.0051 44.2413 74.6447C44.3693 74.2844 44.4946 73.9059 44.6163 73.509C44.732 73.0753 44.7829 72.8215 44.7706 72.7482C44.7828 72.5956 44.8562 72.47 44.9904 72.3723C45.1551 72.2317 45.3017 72.0946 45.4298 71.9601C45.5639 71.6364 45.7532 71.3033 45.9972 70.9611C46.2716 70.5763 46.4818 70.2584 46.6281 70.008C46.8598 69.5926 47.299 68.9543 47.9454 68.093C48.592 67.2314 49.2167 66.3541 49.8204 65.4621C50.4485 64.4908 51.0037 63.6449 51.4855 62.924C51.9611 62.1664 52.1959 61.6563 52.1896 61.3937C52.1896 61.3937 52.2358 61.3297 52.3273 61.2014C52.4492 61.0303 52.5922 60.8741 52.757 60.7336C52.9217 60.593 53.129 60.3701 53.379 60.0646C53.6658 59.753 53.9011 59.4687 54.0841 59.2121C54.1083 58.9068 54.2182 58.5491 54.4132 58.1398C54.6387 57.688 54.9033 57.248 55.2081 56.8205C55.4275 56.3319 55.6226 55.8098 55.7931 55.2541C55.9575 54.6616 56.0548 54.2308 56.0851 53.9621C56.1275 53.5408 56.051 53.3094 55.8556 53.2668C55.654 53.1876 55.1291 53.0864 54.2804 52.965C53.3521 52.8193 52.518 52.903 51.7794 53.215C51.0409 53.5272 50.1071 54.2488 48.9786 55.3791C48.4844 55.5749 48.0329 55.8011 47.6242 56.0578C47.2519 56.3085 46.9155 56.4399 46.6163 56.4523C46.4576 56.4035 46.2651 56.2658 46.0392 56.0402C45.8133 55.8147 45.5719 55.6107 45.3156 55.4279L44.3702 53.1564L45.9171 51.9377C47.2595 50.7336 48.5683 49.7796 49.8439 49.0764C51.1498 48.3304 52.3431 48.0368 53.424 48.1945ZM34.673 56.3635C34.4166 56.4064 34.0802 56.5378 33.6652 56.758C33.2809 56.9353 32.9577 57.1401 32.6954 57.3723C32.4636 57.5617 32.1733 57.629 31.8253 57.5744C31.5139 57.5136 31.3423 57.3914 31.3117 57.2082C31.2257 56.6958 30.9752 56.7756 30.5607 57.4475C30.1765 58.0767 29.6647 58.9534 29.0245 60.0773C28.4756 60.8472 28.0209 61.6199 27.6613 62.3957C27.3322 63.1286 27.1807 63.5684 27.2052 63.715C27.2298 63.8615 27.205 64.054 27.132 64.2922C27.0589 64.5303 26.9916 64.8051 26.9308 65.1164C26.7906 65.4035 26.6418 65.8623 26.4835 66.4914C26.3253 67.1203 26.1671 67.7492 26.0089 68.3781C25.8812 68.9644 25.8056 69.4107 25.7814 69.716C25.806 69.8628 25.8731 70.2661 25.9835 70.925C26.0878 71.5476 26.1864 72.1335 26.2785 72.6828C26.3827 73.3052 26.4769 73.7601 26.5626 74.0471C26.6484 74.334 26.7438 74.5637 26.8478 74.7346C26.9883 74.8993 27.1807 75.1493 27.4249 75.4846C27.6144 75.7164 27.8869 75.9916 28.2413 76.3088C28.6261 76.5831 28.8862 76.7842 29.0206 76.9123C29.4848 77.211 29.7658 77.3145 29.8634 77.2228C29.9918 77.0884 30.3916 76.8901 31.0626 76.6271C31.4655 76.5596 31.8408 76.4399 32.1886 76.2687C32.5303 76.0609 32.8082 75.8073 33.0216 75.508C33.6072 74.9581 34.1316 74.2673 34.5949 73.4367C35.0949 72.5997 35.4667 71.6705 35.7101 70.6506C36.0209 70.0337 36.2379 69.4141 36.3595 68.7912C36.5116 68.1256 36.7211 67.017 36.9884 65.466C37.2139 65.014 37.3321 64.4854 37.3439 63.881C37.3556 63.2765 37.3284 62.7723 37.2609 62.3693C37.1934 61.9664 37.1011 61.4168 36.9845 60.7209C36.9046 60.0188 36.8982 59.4169 36.965 58.9162C36.8055 57.9645 36.6951 57.4183 36.6339 57.2775C36.5666 57.1005 36.3798 56.887 36.0744 56.6369C35.9094 56.5516 35.689 56.4753 35.4142 56.4084C35.1762 56.3354 34.9292 56.3206 34.673 56.3635ZM78.9757 43.5178C80.0801 42.9187 80.6326 42.8453 80.6329 43.2971C80.6347 43.2985 80.8513 43.4696 81.2833 43.8098C81.7477 44.1086 82.1333 44.27 82.4386 44.2941C82.5911 44.3064 82.7222 44.416 82.8322 44.6232C82.9727 44.7879 83.1135 44.9527 83.254 45.1174C83.3764 45.3981 83.297 45.8255 83.0167 46.3996C82.7302 46.9372 82.3707 47.4879 81.9376 48.05C81.4862 48.5021 81.1532 48.7646 80.9396 48.8381C80.7627 48.9053 80.589 48.8779 80.4181 48.756C80.4301 48.6035 80.3407 48.5237 80.1515 48.5178C79.9564 48.4753 79.8585 48.4543 79.8585 48.4543C79.6264 48.418 79.2176 48.562 78.632 48.8859C78.0766 49.1672 77.4876 49.5858 76.8654 50.1418C76.2735 50.6552 75.7512 51.2517 75.2999 51.9299C75.0195 52.278 74.7758 52.6203 74.5685 52.9562C74.3612 53.2922 74.2334 53.5396 74.1847 53.6984C73.7883 54.2544 73.4468 54.8015 73.1603 55.3391C72.8701 55.8358 72.7232 56.0859 72.7208 56.09C72.8675 56.2914 73.1332 56.3035 73.5177 56.1262C73.9389 55.9426 74.155 55.7739 74.1671 55.6213C74.1436 55.4747 74.5161 55.2237 75.2843 54.8693C76.0839 54.4718 76.8994 54.1658 77.7296 53.9514C78.0347 53.7498 78.4716 53.6581 79.0392 53.676C79.6435 53.6877 80.1353 53.6992 80.5138 53.7111C81.3441 53.7227 81.9179 53.7778 82.2355 53.8752C82.5531 53.9726 82.9783 54.2588 83.5099 54.7346C84.359 55.3078 84.9789 55.9766 85.3702 56.7394C85.7982 57.4961 86.0745 58.3534 86.1974 59.3117C86.2956 59.8978 86.3264 60.4202 86.2902 60.8781C86.2539 61.3361 86.0743 61.8373 85.7511 62.381C85.5378 62.9064 85.254 63.5755 84.9005 64.3879C84.541 65.1635 84.172 65.8842 83.7941 66.55C83.4527 67.2097 83.1358 67.6773 82.8429 67.9523C82.7086 68.0501 82.5775 68.1665 82.4494 68.301C82.3562 68.3884 82.3071 68.4337 82.3029 68.4377C82.3031 68.6636 82.0622 69.0247 81.5802 69.5197C81.1288 69.9719 80.5397 70.5033 79.8136 71.1144C79.1181 71.6828 78.3979 72.2177 77.6535 72.7189C76.9091 73.2201 76.2559 73.5934 75.6945 73.8381C74.5409 74.3702 73.4082 74.6921 72.297 74.8029C71.2163 74.871 70.23 74.6029 69.338 73.9992C68.7577 73.6822 68.1339 73.2222 67.4679 72.6184C66.8385 72.0083 66.4076 71.3453 66.1749 70.631C65.8999 70.1126 65.716 69.6918 65.6242 69.3684C65.5323 69.0448 65.4832 68.6381 65.4767 68.1496C65.5068 67.655 65.5305 66.8977 65.548 65.8781C65.6201 64.5103 65.7048 63.4415 65.8019 62.6721C65.8928 61.8661 66.1915 60.9501 66.6974 59.924C66.8616 59.1057 67.0625 58.281 67.2999 57.4504C67.5678 56.5774 67.7747 56.0155 67.921 55.7648C68.0612 55.4778 68.2716 55.0469 68.5519 54.4728C68.8323 53.8987 69.1376 53.3578 69.4669 52.8508C69.7534 52.3134 70.009 51.8183 70.2345 51.3664C70.4906 50.8716 70.6183 50.6232 70.6183 50.6232C70.783 50.4827 70.9297 50.3455 71.0577 50.2111C71.2225 50.0705 71.3756 49.8566 71.5158 49.5695C71.7536 49.1908 72.1619 48.7078 72.7413 48.1213C73.3148 47.498 73.9799 46.8592 74.7365 46.2053C75.4931 45.5513 76.2475 44.9922 76.9982 44.5275C77.7426 44.0263 78.4019 43.6892 78.9757 43.5178ZM79.6837 58.2004C79.2991 58.1519 78.942 58.155 78.6124 58.2101C78.2828 58.2654 77.7819 58.4246 77.1105 58.6877C76.4695 58.908 75.4469 59.324 74.0431 59.9357C73.7928 60.0153 73.5333 60.1532 73.2648 60.3488C73.0268 60.5017 72.7672 60.6396 72.4865 60.7619C72.4315 60.884 72.2694 61.043 72.0011 61.2385C71.7329 61.4338 71.5137 61.5838 71.3429 61.6877C70.9828 61.7857 70.7202 62.1307 70.5558 62.7228C70.3914 63.3152 70.2605 64.4483 70.1642 66.1213C70.1713 67.2872 70.1692 68.0599 70.1574 68.4387C70.1821 68.8111 70.2892 69.114 70.4786 69.3459C70.6132 69.6995 70.7812 69.916 70.9826 69.9953C71.1841 70.0745 71.4199 70.1291 71.6886 70.1594C72.2866 70.1345 72.7352 70.1162 73.0343 70.1037C73.3274 70.0546 73.85 69.7979 74.6007 69.3332C74.8814 69.2109 75.1257 69.0946 75.3331 68.9846C75.5406 68.8745 75.7025 68.8286 75.8185 68.8469C75.8185 68.8469 76.013 68.6627 76.4035 68.2961C76.8244 67.8866 77.2977 67.45 77.8224 66.9855C79.3662 65.6348 80.4551 64.2657 81.089 62.8791C81.7166 61.4561 81.8656 60.3203 81.5353 59.4719C81.5351 59.2459 81.4586 59.0136 81.3058 58.7756C81.147 58.5013 81.0614 58.3275 81.049 58.2541C80.9757 58.2664 80.804 58.2571 80.5353 58.2267C80.3033 58.1903 80.0194 58.1818 79.6837 58.2004ZM21.9113 6.63593C22.8759 6.54965 24.085 6.57314 25.5382 6.70624C26.9916 6.83936 28.2437 7.0066 29.2941 7.20722C30.54 7.45043 31.9297 7.9901 33.463 8.82538C34.9962 9.66056 36.4351 10.7182 37.7794 11.9992C39.1604 13.2741 40.1694 14.6872 40.8058 16.2375C40.9893 16.6587 41.2035 17.2635 41.4484 18.051C41.6933 18.8384 41.88 19.6167 42.0089 20.3859C42.1683 21.1124 42.1748 21.6013 42.0285 21.8517C41.9798 22.0105 41.956 22.2031 41.9562 22.4289C41.9869 22.6119 42.0816 22.7279 42.2404 22.7766C42.2221 22.8926 42.1646 23.3353 42.0675 24.1047C41.9643 24.8375 41.864 25.4762 41.7667 26.0197C41.853 26.9844 41.7808 28.1265 41.5499 29.4455C41.3556 30.7584 41.0971 32.0258 40.7745 33.2473C40.4825 34.4258 40.2055 35.3571 39.9435 36.0412C39.797 36.0657 39.6559 36.127 39.5216 36.2248C39.4183 36.2797 39.4427 36.3133 39.5949 36.3254C39.6255 36.5085 39.4832 36.8906 39.1661 37.4709C39.0381 37.6053 38.8459 37.9197 38.59 38.4142C38.3644 38.8663 38.1714 39.1814 38.0128 39.3586C38.0191 39.6211 37.9465 39.8596 37.7941 40.0734C37.6355 40.2506 37.4826 40.3516 37.3361 40.3762C37.3325 40.3768 37.2959 40.3821 37.2267 40.3937C37.1901 40.3999 37.1836 40.4767 37.2081 40.6232C36.9887 41.1119 36.5893 41.7628 36.0099 42.5754C35.4305 43.3879 34.7624 44.2346 34.006 45.1144C33.2497 45.9942 32.4838 46.8191 31.7091 47.5891C30.9344 48.359 30.2051 48.9516 29.5216 49.3674C29.1983 49.6852 28.8473 49.9512 28.4689 50.1652C28.0966 50.4159 27.743 50.6639 27.4074 50.9084C27.2487 51.0856 26.7388 51.3026 25.8781 51.5598C25.0174 51.8169 24.0988 52.065 23.1222 52.3039C22.1822 52.5367 21.4462 52.7543 20.9152 52.9562C20.2376 53.1827 19.3917 53.3052 18.3781 53.3244C17.3706 53.3802 16.2746 53.3569 15.09 53.2541C14.4735 53.1692 14.0153 53.0201 13.716 52.8068C13.4532 52.5872 12.9883 52.1753 12.3224 51.5715C11.864 51.0834 11.5216 50.5001 11.2951 49.8225C11.1052 49.1387 11.0926 48.5008 11.257 47.9084C11.458 47.3098 11.8787 46.9002 12.5197 46.6799C12.8004 46.5575 13.1609 46.5725 13.6007 46.7248C13.6049 46.7258 13.6092 46.7267 13.6134 46.7277C13.6033 46.6905 13.5924 46.6526 13.5822 46.6144C13.4106 45.8148 13.3822 44.8594 13.4972 43.7482C13.5638 43.0216 13.67 42.081 13.8156 40.9269C13.9611 39.7728 14.1373 38.5757 14.3439 37.3361C14.5505 36.0964 14.7356 34.9537 14.8995 33.9094C15.1001 32.8593 15.2342 32.0839 15.3009 31.5832C15.453 30.9175 15.6229 29.6835 15.8107 27.882C15.9442 26.8805 16.0776 25.8787 16.2111 24.8771C16.3812 23.8697 16.5515 22.9752 16.7218 22.1935C16.886 21.3754 17.0042 20.8469 17.0773 20.6086C17.1806 20.1017 17.2723 19.2957 17.3507 18.1906C17.4597 17.0426 17.6902 15.7228 18.0431 14.2326L18.1242 12.3547L17.4738 12.1818C17.0587 12.402 16.7197 12.5153 16.4572 12.5217C16.2254 12.4853 16.0699 12.4542 15.9904 12.4299C15.7828 12.54 15.4801 12.5341 15.0831 12.4123C14.7167 12.2477 14.3591 12.0249 14.0109 11.7443C13.6993 11.4577 13.4881 11.2106 13.3781 11.0031C13.2803 10.8689 13.1946 10.6951 13.1212 10.4816C13.0783 10.2252 13.0568 10.0969 13.0568 10.0969C13.0566 9.87094 13.3317 9.59942 13.881 9.28144C14.4241 8.92685 15.1349 8.56282 16.0138 8.18964C16.9294 7.81029 17.9093 7.47653 18.9533 7.18866C19.9972 6.9008 20.9832 6.71608 21.9113 6.63593ZM24.9376 11.2131C24.3575 11.122 24.015 11.1043 23.9113 11.1594C23.7709 11.2215 23.5728 11.8384 23.3175 13.01C23.0925 14.1398 22.8103 15.5995 22.4699 17.3889C22.166 19.1721 21.8289 21.0934 21.4581 23.1516C21.1179 25.1668 20.7807 27.0873 20.4464 28.9133C20.3799 29.6399 20.2639 30.4123 20.0997 31.2307C19.9722 32.0428 19.8664 32.7575 19.7814 33.3742C19.6903 33.9544 19.6599 34.3366 19.6906 34.5197C19.392 35.2099 19.1302 36.2326 18.9054 37.5881C18.6806 38.9439 18.6209 40.8376 18.7267 43.2678C18.6057 44.5681 18.5426 45.6518 18.5372 46.5187C18.5257 47.3489 18.4437 47.7581 18.2911 47.7463C18.2911 47.7463 18.2999 47.9145 18.3185 48.2502C18.3189 48.2556 18.3182 48.2614 18.3185 48.2668C19.0587 48.4475 19.7177 48.4466 20.297 48.258C20.7913 48.0622 21.3837 47.8878 22.0734 47.7346C22.8059 47.6118 23.493 47.4402 24.1339 47.2199C24.8115 46.9934 25.3279 46.6996 25.6818 46.3391C27.4022 44.6952 28.6737 43.4085 29.4972 42.4797C30.3146 41.5142 30.7238 41.0314 30.7238 41.0314C30.7725 40.8728 30.8823 40.7418 31.0529 40.6379C31.2542 40.4912 31.4931 40.3379 31.7677 40.1789C31.9507 39.9223 32.2405 39.516 32.6369 38.9601C33.0271 38.3676 33.4021 37.7961 33.7619 37.2463C34.1582 36.6904 34.4054 36.3663 34.5031 36.2746C34.5211 35.9328 34.5513 35.6643 34.5939 35.4689C34.6303 35.237 34.6297 35.0109 34.5929 34.7912C34.8369 34.449 35.1207 33.78 35.4435 32.7844C35.7968 31.7461 36.1346 30.6161 36.4572 29.3947C36.7736 28.1367 36.9614 27.0128 37.0216 26.0236C37.1603 23.9291 37.0185 22.0694 36.5958 20.4455C36.1732 18.8217 35.5039 17.4084 34.587 16.2062C33.6701 15.0041 32.5422 14.0067 31.2042 13.2141C30.7461 12.9519 30.1383 12.6962 29.381 12.4465C28.6175 12.1601 27.8417 11.9132 27.0538 11.7062C26.2598 11.4627 25.5544 11.298 24.9376 11.2131ZM74.4054 0.0451078C75.1014 -0.0714878 75.7979 0.0379725 76.4943 0.373233C77.2271 0.70227 77.8683 1.04673 78.4181 1.40644C79.023 1.87001 79.3776 2.1877 79.4816 2.35858C79.5855 2.52948 79.6808 2.8712 79.7667 3.38398C79.7548 3.76257 79.6239 4.33071 79.3742 5.08808C79.1183 5.8087 78.7954 6.57827 78.4054 7.39667C78.052 8.20895 77.7011 8.92694 77.3536 9.54999C77.0367 10.1303 76.8049 10.4336 76.6583 10.4582C75.8588 10.8557 75.3632 10.4863 75.173 9.35077C75.13 9.0944 74.9441 8.88083 74.6144 8.71015C74.3186 8.49924 74.1687 8.39237 74.1652 8.38983C74.1468 8.27999 74.1317 8.07552 74.1193 7.77655C74.1373 7.43471 74.1974 7.12288 74.3009 6.84198C74.4227 6.44506 74.3979 6.07264 74.2267 5.7248C74.0921 5.37081 73.8328 5.2819 73.4484 5.45917C73.3508 5.55085 73.158 5.75298 72.8712 6.06464C72.6151 6.33338 72.3288 6.64505 72.0119 6.99921C71.7251 7.31084 71.478 7.63491 71.2706 7.97089C71.0572 8.27027 70.9593 8.47525 70.9777 8.58515C70.9754 8.59405 70.9299 8.77129 70.841 9.1164C70.7435 9.43399 70.5332 9.86477 70.2101 10.4084C70.0151 10.8176 69.8382 11.224 69.6798 11.6271C69.552 11.9874 69.4937 12.2043 69.506 12.2775C69.5305 12.424 69.5403 12.5922 69.5343 12.7814C69.5586 12.9277 69.479 13.0164 69.296 13.0471C69.2948 13.0546 69.2674 13.2284 69.214 13.5685C69.1593 13.9166 69.0285 14.3719 68.8214 14.9338C68.7363 15.3246 68.6173 15.7401 68.465 16.1799C68.3066 16.5828 68.167 16.8701 68.0451 17.0412L68.0997 17.0324C68.0976 17.0403 68.0394 17.2572 67.9259 17.6828C67.8469 18.1102 67.7532 18.5593 67.6437 19.0295C67.5282 19.4624 67.4764 19.7155 67.4884 19.7892C67.513 19.9358 67.7451 19.9723 68.1847 19.8986C68.6609 19.8188 69.2016 19.6724 69.8058 19.4582C70.4405 19.2013 71.0383 18.9499 71.5997 18.7053C72.088 18.4728 72.4244 18.3414 72.6076 18.3107C72.7909 18.2801 73.1697 18.2924 73.7433 18.3469C74.0668 18.481 74.3667 18.8069 74.6417 19.3254C74.9474 19.8013 75.1798 20.2897 75.339 20.7902C75.5287 21.248 75.5806 21.5599 75.4952 21.7248C75.4831 21.8775 75.1139 22.1463 74.3878 22.5314C73.6615 22.9167 72.9255 23.2472 72.1808 23.5226C71.546 23.7796 70.8407 24.0678 70.0656 24.3859C69.2905 24.704 68.6041 24.9886 68.006 25.2394C67.445 25.4839 67.1727 25.6608 67.1906 25.7707C67.0442 25.7954 66.9318 25.9091 66.8527 26.1105C66.7674 26.2754 66.7337 26.4128 66.7521 26.5226C66.8379 27.0353 66.8292 27.4322 66.7257 27.7131C66.6893 27.9451 66.6281 28.3697 66.5431 28.9865C66.4581 29.6032 66.3677 30.2963 66.2706 31.0656C66.2041 31.7922 66.1461 32.4609 66.0978 33.0715C66.0861 33.676 66.0991 34.089 66.1359 34.3088C65.9592 34.6019 65.8863 34.9527 65.9171 35.3615C65.9419 35.734 65.9784 36.0675 66.0275 36.3605C65.9301 36.678 65.8844 36.9682 65.8908 37.2307C65.891 37.4565 65.9033 37.6428 65.9279 37.7892C65.934 37.8259 65.9466 37.8992 65.965 38.009C65.9834 38.1188 65.9832 38.2318 65.965 38.3478C65.9897 38.7203 66.0143 39.2056 66.0392 39.8039C66.1069 40.4326 66.1901 41.0402 66.2882 41.6262L66.3908 43.2473C66.4339 43.7296 66.4467 44.2555 66.4288 44.8234C66.4537 45.4213 66.3897 45.8273 66.2374 46.0412C66.0422 46.2245 65.5107 46.2011 64.6437 45.9699C63.8193 45.7691 63.1013 45.4182 62.4904 44.9182C62.1848 44.6681 61.9675 44.384 61.839 44.0666C61.7105 43.7492 61.6247 43.1236 61.5812 42.1896C61.6602 41.7621 61.66 41.3094 61.5802 40.8332C61.5432 40.3879 61.512 40.0921 61.4874 39.9455C61.4506 39.7257 61.4198 39.2034 61.3947 38.3791C61.4062 37.5486 61.411 36.6813 61.4103 35.7775C61.4034 34.8373 61.4153 34.1198 61.4454 33.6252C61.4393 33.5884 61.4422 33.4935 61.4542 33.341C61.4663 33.1886 61.4819 33.0545 61.5001 32.9387C61.5182 32.5967 61.536 32.1413 61.5538 31.5734C61.6083 30.9994 61.6229 30.3 61.5978 29.4758C61.6643 28.7492 61.7556 28.1691 61.8712 27.7355C61.9807 27.2653 62.032 26.7856 62.0255 26.2971C61.586 26.3707 61.0245 26.5028 60.341 26.6926C59.6938 26.8763 59.0339 27.0994 58.3624 27.3625C57.6849 27.589 57.099 27.8005 56.6046 27.9963C56.1407 28.1493 55.8785 28.2691 55.8175 28.3547C55.6833 28.4525 55.5608 28.736 55.4513 29.2062C55.3723 29.6337 55.3001 30.211 55.2335 30.9377C55.1608 31.6277 55.1244 32.4246 55.1251 33.3283C54.9678 35.087 55.0212 36.867 55.2853 38.6682C55.5432 40.4326 55.8531 41.7179 56.214 42.5236C56.581 43.3659 56.6024 44.172 56.2794 44.9416C55.9993 45.7415 55.655 46.2697 55.2462 46.5266C54.5564 46.6798 53.7592 46.1924 52.8546 45.0637C51.95 43.9348 51.3468 42.4728 51.046 40.6779C50.6479 39.2006 50.4574 37.2739 50.4738 34.8986C50.484 32.4867 50.6498 29.7663 50.9708 26.7375C51.0982 25.6993 51.3042 24.4591 51.59 23.0178C51.8758 21.5765 52.1833 20.1503 52.5119 18.7394C52.877 17.3226 53.2059 16.1375 53.4982 15.1848C53.7843 14.1955 53.9731 13.6363 54.0646 13.508C54.2967 13.5444 54.3792 13.3612 54.3117 12.9582C54.2998 12.8844 54.3995 12.5851 54.6124 12.0607C54.8257 11.5354 55.0154 10.9764 55.1798 10.384C55.5394 9.6083 56.0241 8.79293 56.6339 7.93769C57.2805 7.07617 57.9394 6.28744 58.6105 5.57245C59.3119 4.81486 59.9372 4.27713 60.4865 3.95917C60.999 3.6474 61.5299 3.44481 62.0792 3.35273C62.995 3.19931 63.9237 3.34531 64.8644 3.79023C65.8051 4.23517 66.5387 4.90314 67.0646 5.79413C67.5646 4.95728 68.1902 4.19366 68.9406 3.50312C69.6847 2.77607 70.264 2.18939 70.6788 1.74335C71.4172 1.20546 72.0304 0.819555 72.5187 0.5871C73.007 0.354654 73.6361 0.173982 74.4054 0.0451078ZM45.1564 24.4914C45.5714 24.2712 46.1333 24.3651 46.8419 24.7736C47.5506 25.1821 48.1372 25.6493 48.6017 26.174C48.9437 26.418 49.1186 26.7843 49.1251 27.2726C49.1316 27.7611 49.0067 28.4786 48.7511 29.425C48.6537 29.7426 48.5535 30.2683 48.4503 31.0012C48.3777 31.691 48.3416 32.2623 48.3419 32.7141C48.2445 33.0316 48.1317 33.4834 48.004 34.0695C47.9068 34.613 47.8247 35.1352 47.7579 35.6359C47.7154 35.8314 47.7004 36.1919 47.713 36.717C47.7195 37.2054 47.7106 37.7151 47.6867 38.2463C47.6627 38.7774 47.5833 39.2048 47.4494 39.5285C47.3713 41.0857 46.9325 42.0635 46.1329 42.4611C45.3701 42.8525 44.6193 42.7519 43.88 42.1603C43.5379 41.9164 43.2439 41.5139 42.9992 40.9523C42.7911 40.3848 42.6591 39.8232 42.6036 39.2678C42.5421 38.6755 42.5609 38.2201 42.6583 37.9025C42.6092 37.6095 42.6086 37.3836 42.6574 37.2248C42.7365 37.0234 42.7457 36.8524 42.6847 36.7121C42.6235 36.5717 42.6166 36.3087 42.6652 35.924C42.7137 35.5393 42.7658 35.1725 42.8204 34.8244C42.9786 34.1954 43.1462 33.3957 43.3224 32.425C43.4925 31.4173 43.662 30.4092 43.8322 29.4016C43.9962 28.3573 44.1303 27.4684 44.2335 26.7355C44.3306 25.9663 44.3845 25.5054 44.3966 25.3527C44.323 24.9132 44.5764 24.6262 45.1564 24.4914ZM64.5109 8.08612C64.3397 7.96424 63.924 7.95909 63.2648 8.06952C63.0755 8.06373 62.7914 8.16716 62.4132 8.38105C62.0716 8.58886 61.7548 8.83076 61.462 9.10565C61.1997 9.33789 61.0837 9.54555 61.1144 9.7287L61.1505 9.94843C61.0343 9.93092 60.797 10.1971 60.4376 10.7463C60.1145 11.29 59.7394 11.9743 59.3126 12.799C58.9226 13.6174 58.5689 14.4294 58.2521 15.2355C58.0634 15.9073 57.8497 16.7718 57.6124 17.8283C57.3752 18.8849 57.0804 20.2714 56.7277 21.9875L56.5089 23.3801L57.4064 23.343C57.5529 23.3184 57.8768 23.2267 58.3771 23.0676C58.9082 22.8656 59.5464 22.6262 60.2911 22.3508C61.0358 22.0754 61.8206 21.8127 62.6447 21.5617L62.8732 20.9016C63.1649 19.2712 63.4171 17.9675 63.63 16.9904C63.8367 15.9768 64.0586 15.0544 64.296 14.2238L64.3234 13.7101C64.3112 13.6366 64.3477 13.4042 64.4327 13.0139C64.5544 12.617 64.5849 12.2355 64.5236 11.8693C64.5713 10.5809 64.6251 9.66747 64.6857 9.13007C64.7401 8.55626 64.6819 8.20808 64.5109 8.08612ZM46.3732 11.8596C46.7636 11.4929 47.371 11.4098 48.1954 11.6105C49.0565 11.8052 49.7192 12.165 50.1837 12.6896C50.63 13.3303 50.8412 14.0292 50.8175 14.7863C50.8304 15.5372 50.5751 16.3711 50.0509 17.2873C49.6242 18.1119 49.0079 18.7056 48.2023 19.0666C47.3906 19.3908 46.6973 19.4123 46.1232 19.132C45.6711 18.9065 45.3011 18.6105 45.0138 18.2443C44.757 17.8355 44.5822 17.4692 44.4904 17.1457C44.4352 16.8161 44.4382 16.6082 44.4992 16.5226C44.7979 16.0584 45.0202 15.4749 45.1661 14.7726C45.3487 14.0643 45.5594 13.4076 45.797 12.8029C45.8518 12.6808 45.919 12.519 45.9982 12.3176C46.1079 12.0733 46.2328 11.9207 46.3732 11.8596Z" fill="white"/>
</svg>
